static_grf.mot
version=1
nRows=12
nColumns 19
inDegrees=yes
endheader
time	1_ground_force_vx	1_ground_force_vy	1_ground_force_vz	1_ground_force_px	1_ground_force_py	1_ground_force_pz	1_ground_torque_x	1_ground_torque_y	1_ground_torque_z	2_ground_force_vx	2_ground_force_vy	2_ground_force_vz	2_ground_force_px	2_ground_force_py	2_ground_force_pz	2_ground_torque_x	2_ground_torque_y	2_ground_torque_z
            1.253500	            4.776166	          405.592680	          -38.902234	           -0.289786	            0.006129	           -0.385765	            0.022220	            1.886963	           -0.180987	           -4.611862	          385.671958	           31.411900	           -0.259515	            0.005673	           -0.733065	           -0.004839	            0.404682	            0.032960
            1.254000	            4.913809	          405.592510	          -38.856723	           -0.289899	            0.006128	           -0.385479	            0.023422	            1.933283	           -0.185213	           -4.514715	          384.750528	           31.690143	           -0.259620	            0.005671	           -0.732725	           -0.004190	            0.357111	            0.029414
            1.254500	            4.821860	          407.034617	          -38.850312	           -0.289758	            0.006126	           -0.385157	            0.022783	            1.923237	           -0.183568	           -4.752370	          385.671116	           31.505816	           -0.259407	            0.005674	           -0.733113	           -0.004352	            0.353197	            0.028853
            1.255000	            4.867948	          406.313367	          -38.807658	           -0.289622	            0.006128	           -0.385521	            0.023038	            1.922933	           -0.183662	           -4.753699	          386.039397	           31.507130	           -0.259534	            0.005673	           -0.733064	           -0.004770	            0.387326	            0.031612
            1.255500	            4.867882	          406.673898	          -38.806112	           -0.289593	            0.006127	           -0.385362	            0.021998	            1.837743	           -0.175363	           -4.658650	          385.671287	           31.552704	           -0.259267	            0.005674	           -0.733065	           -0.004647	            0.384689	            0.031472
            1.256000	            4.684495	          406.133232	          -38.853835	           -0.289627	            0.006127	           -0.385310	            0.021817	            1.891479	           -0.180953	           -4.799220	          385.670947	           31.505836	           -0.259221	            0.005674	           -0.732968	           -0.005000	            0.401790	            0.032823
            1.256500	            4.822560	          406.312571	          -38.624120	           -0.289592	            0.006128	           -0.385458	            0.022392	            1.886574	           -0.179338	           -4.660664	          386.223876	           31.507747	           -0.259363	            0.005674	           -0.733159	           -0.003935	            0.326067	            0.026600
            1.257000	            4.592435	          406.314100	          -38.990399	           -0.289703	            0.006127	           -0.385406	            0.021371	            1.890819	           -0.181445	           -4.845364	          385.486302	           31.599055	           -0.259641	            0.005672	           -0.733019	           -0.005985	            0.476177	            0.039033
            1.257500	            4.959439	          406.133481	          -38.900370	           -0.289772	            0.006128	           -0.385495	            0.023651	            1.936774	           -0.185508	           -4.799323	          385.671784	           31.271195	           -0.259465	            0.005673	           -0.733114	           -0.004982	            0.400342	            0.032461
            1.258000	            5.051254	          406.673934	          -38.806567	           -0.289819	            0.006128	           -0.385494	            0.024509	            1.973211	           -0.188292	           -4.425812	          386.041084	           31.366206	           -0.259239	            0.005675	           -0.733355	           -0.004306	            0.375613	            0.030519
            1.258500	            4.822512	          405.952237	          -38.671526	           -0.289456	            0.006128	           -0.385625	            0.022387	            1.884502	           -0.179520	           -4.473285	          386.224720	           31.460739	           -0.259273	            0.005674	           -0.733208	           -0.004259	            0.367744	            0.029955
            1.259000	            4.638505	          406.313716	          -38.898801	           -0.289841	            0.006128	           -0.385581	            0.021457	            1.879585	           -0.179944	           -4.752308	          385.670614	           31.646600	           -0.259026	            0.005676	           -0.733309	           -0.004905	            0.398057	            0.032663
